<?xml version="1.0" encoding="UTF-8"?>
<svg width="700pt" height="700pt" version="1.1" viewBox="0 0 700 700" xmlns="http://www.w3.org/2000/svg" xmlns:xlink="http://www.w3.org/1999/xlink">
 <defs>
  <symbol id="v" overflow="visible">
   <path d="m15.625-0.9375c-0.8125 0.41797-1.6562 0.73047-2.5312 0.9375-0.86719 0.21875-1.7734 0.32812-2.7188 0.32812-2.8359 0-5.0781-0.78906-6.7344-2.375-1.6562-1.582-2.4844-3.7266-2.4844-6.4375 0-2.7188 0.82812-4.8633 2.4844-6.4375 1.6562-1.582 3.8984-2.375 6.7344-2.375 0.94531 0 1.8516 0.10547 2.7188 0.3125 0.875 0.21094 1.7188 0.52734 2.5312 0.95312v3.5156c-0.8125-0.5625-1.6172-0.96875-2.4062-1.2188-0.79297-0.25781-1.625-0.39062-2.5-0.39062-1.5625 0-2.793 0.5-3.6875 1.5-0.89844 1-1.3438 2.3828-1.3438 4.1406 0 1.7617 0.44531 3.1406 1.3438 4.1406 0.89453 1 2.125 1.5 3.6875 1.5 0.875 0 1.707-0.12891 2.5-0.39062 0.78906-0.25781 1.5938-0.66406 2.4062-1.2188z"/>
  </symbol>
  <symbol id="d" overflow="visible">
   <path d="m11.422-9.2812c-0.35547-0.16406-0.71094-0.28516-1.0625-0.35938-0.35547-0.082031-0.71094-0.125-1.0625-0.125-1.043 0-1.8516 0.33984-2.4219 1.0156-0.5625 0.66797-0.84375 1.625-0.84375 2.875v5.875h-4.0781v-12.75h4.0781v2.0938c0.51953-0.83203 1.1172-1.4414 1.7969-1.8281 0.6875-0.38281 1.5039-0.57812 2.4531-0.57812 0.13281 0 0.28125 0.011719 0.4375 0.03125 0.16406 0.011719 0.39844 0.03125 0.70312 0.0625z"/>
  </symbol>
  <symbol id="b" overflow="visible">
   <path d="m14.688-6.4062v1.1562h-9.5312c0.09375 0.96094 0.4375 1.6797 1.0312 2.1562 0.59375 0.48047 1.4219 0.71875 2.4844 0.71875 0.85156 0 1.7266-0.125 2.625-0.375 0.90625-0.25781 1.832-0.64844 2.7812-1.1719v3.1406c-0.96094 0.36719-1.9219 0.64062-2.8906 0.82812-0.96094 0.1875-1.9219 0.28125-2.8906 0.28125-2.3047 0-4.0938-0.58203-5.375-1.75-1.2812-1.1758-1.9219-2.8203-1.9219-4.9375 0-2.082 0.625-3.7188 1.875-4.9062 1.2578-1.1953 2.9922-1.7969 5.2031-1.7969 2 0 3.5977 0.60547 4.7969 1.8125 1.207 1.2109 1.8125 2.8242 1.8125 4.8438zm-4.1875-1.3594c0-0.76953-0.23047-1.3906-0.6875-1.8594-0.44922-0.47656-1.0391-0.71875-1.7656-0.71875-0.79297 0-1.4336 0.22656-1.9219 0.67188-0.49219 0.4375-0.79688 1.0742-0.92188 1.9062z"/>
  </symbol>
  <symbol id="l" overflow="visible">
   <path d="m7.6719-5.7344c-0.85547 0-1.4961 0.14844-1.9219 0.4375-0.42969 0.28125-0.64062 0.70312-0.64062 1.2656 0 0.52344 0.17188 0.92969 0.51562 1.2188 0.34375 0.29297 0.82031 0.4375 1.4375 0.4375 0.76953 0 1.4141-0.27344 1.9375-0.82812 0.53125-0.55078 0.79688-1.2383 0.79688-2.0625v-0.46875zm6.2344-1.5469v7.2812h-4.1094v-1.8906c-0.55469 0.77344-1.1719 1.3359-1.8594 1.6875-0.67969 0.35156-1.5078 0.53125-2.4844 0.53125-1.3242 0-2.3984-0.38281-3.2188-1.1562-0.82422-0.76953-1.2344-1.7695-1.2344-3 0-1.4883 0.51562-2.582 1.5469-3.2812 1.0312-0.69531 2.6445-1.0469 4.8438-1.0469h2.4062v-0.32812c0-0.64453-0.25781-1.1133-0.76562-1.4062-0.51172-0.30078-1.3086-0.45312-2.3906-0.45312-0.86719 0-1.6797 0.089844-2.4375 0.26562-0.75 0.16797-1.4453 0.42969-2.0781 0.78125v-3.1094c0.86328-0.20703 1.7344-0.36719 2.6094-0.48438 0.88281-0.11328 1.7695-0.17188 2.6562-0.17188 2.3008 0 3.9609 0.46094 4.9844 1.375 1.0195 0.90625 1.5312 2.375 1.5312 4.4062z"/>
  </symbol>
  <symbol id="a" overflow="visible">
   <path d="m6.4062-16.375v3.625h4.2031v2.9219h-4.2031v5.4062c0 0.58594 0.11328 0.98047 0.34375 1.1875 0.23828 0.21094 0.70703 0.3125 1.4062 0.3125h2.0938v2.9219h-3.4844c-1.6172 0-2.7617-0.33203-3.4375-1-0.66797-0.67578-1-1.8164-1-3.4219v-5.4062h-2.0156v-2.9219h2.0156v-3.625z"/>
  </symbol>
  <symbol id="f" overflow="visible">
   <path d="m10.625-10.875v-6.8438h4.1094v17.719h-4.1094v-1.8438c-0.55469 0.75-1.168 1.3047-1.8438 1.6562-0.67969 0.34375-1.4609 0.51562-2.3438 0.51562-1.5742 0-2.8672-0.625-3.875-1.875-1.0117-1.25-1.5156-2.8516-1.5156-4.8125 0-1.9688 0.50391-3.5781 1.5156-4.8281 1.0078-1.25 2.3008-1.875 3.875-1.875 0.875 0 1.6484 0.17969 2.3281 0.53125 0.6875 0.35547 1.3047 0.90625 1.8594 1.6562zm-2.6719 8.25c0.86328 0 1.5234-0.31641 1.9844-0.95312 0.45703-0.64453 0.6875-1.5703 0.6875-2.7812 0-1.2188-0.23047-2.1445-0.6875-2.7812-0.46094-0.63281-1.1211-0.95312-1.9844-0.95312-0.875 0-1.543 0.32031-2 0.95312-0.46094 0.63672-0.6875 1.5625-0.6875 2.7812 0 1.2109 0.22656 2.1367 0.6875 2.7812 0.45703 0.63672 1.125 0.95312 2 0.95312z"/>
  </symbol>
  <symbol id="k" overflow="visible">
   <path d="m8.75-2.625c0.86328 0 1.5234-0.31641 1.9844-0.95312 0.45703-0.64453 0.6875-1.5703 0.6875-2.7812 0-1.2188-0.23047-2.1445-0.6875-2.7812-0.46094-0.63281-1.1211-0.95312-1.9844-0.95312-0.875 0-1.5469 0.32422-2.0156 0.96875-0.46875 0.63672-0.70312 1.5586-0.70312 2.7656 0 1.2109 0.23438 2.1367 0.70312 2.7812 0.46875 0.63672 1.1406 0.95312 2.0156 0.95312zm-2.7188-8.25c0.5625-0.75 1.1797-1.3008 1.8594-1.6562 0.6875-0.35156 1.4727-0.53125 2.3594-0.53125 1.5703 0 2.8633 0.625 3.875 1.875 1.0078 1.25 1.5156 2.8594 1.5156 4.8281 0 1.9609-0.50781 3.5625-1.5156 4.8125-1.0117 1.25-2.3047 1.875-3.875 1.875-0.88672 0-1.6719-0.17969-2.3594-0.53125-0.67969-0.35156-1.2969-0.89844-1.8594-1.6406v1.8438h-4.0781v-17.719h4.0781z"/>
  </symbol>
  <symbol id="e" overflow="visible">
   <path d="m0.28125-12.75h4.0781l3.4219 8.6562 2.9219-8.6562h4.0781l-5.375 13.953c-0.53125 1.4141-1.1562 2.4062-1.875 2.9688-0.71875 0.57031-1.668 0.85938-2.8438 0.85938h-2.3594v-2.6719h1.2812c0.6875 0 1.1875-0.10938 1.5-0.32812 0.32031-0.21875 0.56641-0.61719 0.73438-1.1875l0.125-0.35938z"/>
  </symbol>
  <symbol id="j" overflow="visible">
   <path d="m12.453-3.0938h-6.8594l-1.0781 3.0938h-4.4062l6.2969-17h5.2344l6.2812 17h-4.4062zm-5.7656-3.1562h4.6562l-2.3125-6.7656z"/>
  </symbol>
  <symbol id="i" overflow="visible">
   <path d="m13.781-10.625c0.50781-0.78906 1.1172-1.3945 1.8281-1.8125 0.70703-0.41406 1.4883-0.625 2.3438-0.625 1.457 0 2.5703 0.45312 3.3438 1.3594 0.76953 0.90625 1.1562 2.2188 1.1562 3.9375v7.7656h-4.1094v-6.6406c0.007812-0.10156 0.015625-0.20703 0.015625-0.3125 0.007813-0.10156 0.015625-0.25391 0.015625-0.45312 0-0.90625-0.13672-1.5625-0.40625-1.9688-0.26172-0.40625-0.6875-0.60938-1.2812-0.60938-0.77344 0-1.3711 0.32031-1.7969 0.95312-0.41797 0.63672-0.63672 1.5586-0.65625 2.7656v6.2656h-4.0938v-6.6406c0-1.4141-0.125-2.3281-0.375-2.7344-0.24219-0.40625-0.66797-0.60938-1.2812-0.60938-0.78125 0-1.3867 0.32422-1.8125 0.96875-0.42969 0.63672-0.64062 1.5547-0.64062 2.75v6.2656h-4.0938v-12.75h4.0938v1.875c0.5-0.72656 1.0703-1.2734 1.7188-1.6406 0.65625-0.36328 1.375-0.54688 2.1562-0.54688 0.875 0 1.6484 0.21484 2.3281 0.64062 0.67578 0.42969 1.1914 1.0273 1.5469 1.7969z"/>
  </symbol>
  <symbol id="h" overflow="visible">
   <path d="m14.781-7.7656v7.7656h-4.1094v-5.9219c0-1.1133-0.027344-1.8789-0.078125-2.2969-0.042969-0.41406-0.125-0.72266-0.25-0.92188-0.15625-0.25781-0.375-0.46094-0.65625-0.60938-0.27344-0.15625-0.57812-0.23438-0.92188-0.23438-0.85547 0-1.5273 0.32812-2.0156 0.98438-0.48047 0.65625-0.71875 1.5703-0.71875 2.7344v6.2656h-4.0781v-17.719h4.0781v6.8438c0.61328-0.75 1.2656-1.3008 1.9531-1.6562 0.69531-0.35156 1.4609-0.53125 2.2969-0.53125 1.4688 0 2.582 0.45312 3.3438 1.3594 0.76953 0.90625 1.1562 2.2188 1.1562 3.9375z"/>
  </symbol>
  <symbol id="u" overflow="visible">
   <path d="m11.922-12.344v3.0938c-0.875-0.36328-1.7188-0.63281-2.5312-0.8125-0.8125-0.1875-1.5781-0.28125-2.2969-0.28125-0.77344 0-1.3516 0.10156-1.7344 0.29688-0.375 0.1875-0.5625 0.48438-0.5625 0.89062 0 0.32422 0.14062 0.57422 0.42188 0.75 0.28906 0.16797 0.80469 0.29297 1.5469 0.375l0.71875 0.10938c2.082 0.26172 3.4844 0.69922 4.2031 1.3125 0.71875 0.60547 1.0781 1.5586 1.0781 2.8594 0 1.3555-0.5 2.375-1.5 3.0625-1 0.67969-2.4961 1.0156-4.4844 1.0156-0.84375 0-1.7148-0.070313-2.6094-0.20312-0.89844-0.125-1.8203-0.32031-2.7656-0.59375v-3.0938c0.8125 0.39844 1.6406 0.69531 2.4844 0.89062 0.85156 0.19922 1.7227 0.29688 2.6094 0.29688 0.78906 0 1.3906-0.10938 1.7969-0.32812 0.40625-0.22656 0.60938-0.55469 0.60938-0.98438 0-0.36328-0.14062-0.63281-0.42188-0.8125-0.27344-0.17578-0.82422-0.31641-1.6562-0.42188l-0.71875-0.09375c-1.8125-0.21875-3.0859-0.63281-3.8125-1.25-0.73047-0.61328-1.0938-1.5508-1.0938-2.8125 0-1.3438 0.46094-2.3438 1.3906-3 0.92578-0.65625 2.3477-0.98438 4.2656-0.98438 0.75 0 1.5352 0.058594 2.3594 0.17188 0.83203 0.11719 1.7344 0.29688 2.7031 0.54688z"/>
  </symbol>
  <symbol id="t" overflow="visible">
   <path d="m13.969-16.453v3.5938c-0.9375-0.41406-1.8516-0.72656-2.7344-0.9375-0.88672-0.21875-1.7266-0.32812-2.5156-0.32812-1.043 0-1.8203 0.14844-2.3281 0.4375-0.5 0.28125-0.75 0.73047-0.75 1.3438 0 0.44922 0.16406 0.80469 0.5 1.0625 0.34375 0.25 0.95703 0.46875 1.8438 0.65625l1.875 0.375c1.8828 0.375 3.2227 0.95312 4.0156 1.7344 0.80078 0.77344 1.2031 1.8711 1.2031 3.2969 0 1.875-0.55859 3.2734-1.6719 4.1875-1.1055 0.90625-2.7969 1.3594-5.0781 1.3594-1.0859 0-2.168-0.10547-3.25-0.3125-1.0859-0.19531-2.168-0.5-3.25-0.90625v-3.7031c1.082 0.58594 2.1289 1.0234 3.1406 1.3125 1.0078 0.29297 1.9883 0.4375 2.9375 0.4375 0.94531 0 1.6758-0.15625 2.1875-0.46875 0.50781-0.32031 0.76562-0.78125 0.76562-1.375 0-0.53125-0.17188-0.94141-0.51562-1.2344-0.34375-0.28906-1.0312-0.54688-2.0625-0.76562l-1.7031-0.375c-1.6992-0.36328-2.9453-0.94141-3.7344-1.7344-0.78125-0.80078-1.1719-1.8789-1.1719-3.2344 0-1.6953 0.54688-3 1.6406-3.9062s2.6641-1.3594 4.7188-1.3594c0.92578 0 1.8828 0.074219 2.875 0.21875 0.98828 0.13672 2.0078 0.34375 3.0625 0.625z"/>
  </symbol>
  <symbol id="g" overflow="visible">
   <path d="m1.8281-4.9688v-7.7812h4.0938v1.2812c0 0.6875-0.007813 1.5547-0.015625 2.5938-0.011719 1.043-0.015625 1.7422-0.015625 2.0938 0 1.0234 0.023437 1.7617 0.078125 2.2188 0.0625 0.44922 0.15625 0.77734 0.28125 0.98438 0.16406 0.26172 0.38281 0.46484 0.65625 0.60938 0.26953 0.14844 0.57812 0.21875 0.92188 0.21875 0.85156 0 1.5195-0.32812 2-0.98438 0.48828-0.65625 0.73438-1.5625 0.73438-2.7188v-6.2969h4.0781v12.75h-4.0781v-1.8438c-0.61719 0.74219-1.2656 1.2891-1.9531 1.6406s-1.4453 0.53125-2.2656 0.53125c-1.4805 0-2.6055-0.44531-3.375-1.3438-0.76172-0.90625-1.1406-2.2227-1.1406-3.9531z"/>
  </symbol>
  <symbol id="s" overflow="visible">
   <path d="m1.9531-12.75h4.0781v12.75h-4.0781zm0-4.9688h4.0781v3.3281h-4.0781z"/>
  </symbol>
  <symbol id="c" overflow="visible">
   <path d="m8.0312-10.141c-0.90625 0-1.6016 0.32422-2.0781 0.96875-0.46875 0.64844-0.70312 1.5859-0.70312 2.8125 0 1.2188 0.23438 2.1562 0.70312 2.8125 0.47656 0.64844 1.1719 0.96875 2.0781 0.96875 0.88281 0 1.5625-0.32031 2.0312-0.96875 0.46875-0.65625 0.70312-1.5938 0.70312-2.8125 0-1.2266-0.23438-2.1641-0.70312-2.8125-0.46875-0.64453-1.1484-0.96875-2.0312-0.96875zm0-2.9219c2.1875 0 3.8945 0.59375 5.125 1.7812 1.2383 1.1875 1.8594 2.8281 1.8594 4.9219s-0.62109 3.7344-1.8594 4.9219c-1.2305 1.1797-2.9375 1.7656-5.125 1.7656-2.2109 0-3.9336-0.58594-5.1719-1.7656-1.2422-1.1875-1.8594-2.8281-1.8594-4.9219s0.61719-3.7344 1.8594-4.9219c1.2383-1.1875 2.9609-1.7812 5.1719-1.7812z"/>
  </symbol>
  <symbol id="r" overflow="visible">
   <path d="m10.344-17.719v2.6875h-2.25c-0.57422 0-0.97656 0.10547-1.2031 0.3125-0.23047 0.21094-0.34375 0.57031-0.34375 1.0781v0.89062h3.4844v2.9219h-3.4844v9.8281h-4.0781v-9.8281h-2.0312v-2.9219h2.0312v-0.89062c0-1.3828 0.38281-2.4102 1.1562-3.0781 0.78125-0.66406 1.9844-1 3.6094-1z"/>
  </symbol>
  <symbol id="q" overflow="visible">
   <path d="m2.1406-17h4.8906l6.1875 11.656v-11.656h4.1562v17h-4.9062l-6.1719-11.656v11.656h-4.1562z"/>
  </symbol>
  <symbol id="p" overflow="visible">
   <path d="m14.781-7.7656v7.7656h-4.1094v-5.9375c0-1.1016-0.027344-1.8633-0.078125-2.2812-0.042969-0.41406-0.125-0.72266-0.25-0.92188-0.15625-0.25781-0.375-0.46094-0.65625-0.60938-0.27344-0.15625-0.57812-0.23438-0.92188-0.23438-0.85547 0-1.5273 0.32812-2.0156 0.98438-0.48047 0.65625-0.71875 1.5703-0.71875 2.7344v6.2656h-4.0781v-12.75h4.0781v1.875c0.61328-0.75 1.2656-1.3008 1.9531-1.6562 0.69531-0.35156 1.4609-0.53125 2.2969-0.53125 1.4688 0 2.582 0.45312 3.3438 1.3594 0.76953 0.90625 1.1562 2.2188 1.1562 3.9375z"/>
  </symbol>
  <symbol id="o" overflow="visible">
   <path d="m2.1406-17h7.2656c2.1641 0 3.8281 0.48438 4.9844 1.4531 1.1562 0.96094 1.7344 2.3242 1.7344 4.0938 0 1.7812-0.57812 3.1562-1.7344 4.125-1.1562 0.96094-2.8203 1.4375-4.9844 1.4375h-2.8906v5.8906h-4.375zm4.375 3.1875v4.7344h2.4375c0.84375 0 1.4922-0.20312 1.9531-0.60938 0.46875-0.41406 0.70312-1.0039 0.70312-1.7656 0-0.75781-0.23438-1.3438-0.70312-1.75-0.46094-0.40625-1.1094-0.60938-1.9531-0.60938z"/>
  </symbol>
  <symbol id="n" overflow="visible">
   <path d="m1.9531-12.75h4.0781v12.516c0 1.707-0.41406 3.0078-1.2344 3.9062-0.8125 0.90625-2 1.3594-3.5625 1.3594h-2.0156v-2.6719h0.71875c0.76953 0 1.2969-0.17969 1.5781-0.53125 0.28906-0.34375 0.4375-1.0312 0.4375-2.0625zm0-4.9688h4.0781v3.3281h-4.0781z"/>
  </symbol>
  <symbol id="m" overflow="visible">
   <path d="m12.266-12.344v3.3125c-0.5625-0.375-1.125-0.64844-1.6875-0.82812-0.55469-0.1875-1.125-0.28125-1.7188-0.28125-1.1367 0-2.0234 0.33594-2.6562 1-0.63672 0.65625-0.95312 1.5859-0.95312 2.7812 0 1.1875 0.31641 2.1172 0.95312 2.7812 0.63281 0.66797 1.5195 1 2.6562 1 0.63281 0 1.2383-0.09375 1.8125-0.28125 0.57031-0.19531 1.1016-0.47656 1.5938-0.84375v3.3281c-0.64844 0.24219-1.2969 0.41406-1.9531 0.53125-0.65625 0.11328-1.3125 0.17188-1.9688 0.17188-2.3047 0-4.1055-0.58594-5.4062-1.7656-1.293-1.1758-1.9375-2.8164-1.9375-4.9219 0-2.1016 0.64453-3.7422 1.9375-4.9219 1.3008-1.1875 3.1016-1.7812 5.4062-1.7812 0.66406 0 1.3203 0.0625 1.9688 0.1875 0.65625 0.11719 1.3047 0.29297 1.9531 0.53125z"/>
  </symbol>
 </defs>
 <g>
  <path d="m298.71 473.77c-6.2617-8.9023-13.512-27.086-16.086-33.801-0.50391-0.09375-0.98828-0.13672-1.4961-0.25-22.145-4.9844-28.266-37.5-29.656-47.758-19.359-6.2148-37.09-14.438-53.164-24.648-5.0859 8.2344-13.066 23.152-12.691 32.066 0.17578 4.3242 15.258 18.73 26.277 29.25 21.008 20.07 42.727 40.82 42.078 56.102-1.0625 25.223-20.387 38.836-30.453 42.512-3.7891 1.3789-8.1523 1.8008-12.758 2.2383-7.0977 0.67578-14.441 1.375-20.875 5.4961-2.4141 1.5469-4.4141 3.3633-5.9609 5.4062-0.84766 1.125-0.50781 2.2188-0.23438 2.7734 0.18359 0.37109 0.91406 1.5898 2.543 1.5898h26.746c3.2773-3.8711 7.043-7 11.285-9.2266 7.0547-3.707 14.602-5.9727 19.688-7.2188 3.8711-0.95313 7.1016-3.5312 8.8633-7.0859l9.3086-18.797c1.1406-2.3047 3.9258-3.2578 6.2539-2.1094 2.3047 1.1406 3.25 3.9414 2.1094 6.25l-9.3125 18.801c-2.9883 6.0234-8.4531 10.398-15 12.004-4.5781 1.125-11.355 3.1523-17.574 6.418-3.6875 1.9414-6.9609 4.7734-9.7305 8.4453-0.48438 0.64453-0.29688 1.25-0.14844 1.5547 0.18359 0.36719 0.55469 0.80078 1.3008 0.80078l57.562-0.007813c1.9883 0 3.8477-0.77734 5.2422-2.1914 1.4375-1.4531 2.2109-3.3945 2.1758-5.4648-0.097656-7.4844 0.96094-13.574 3.1602-18.098 2.3789-4.9062 9.0195-14.258 19.719-27.793 4.3477-5.4922 3.7969-13.328-1.2734-18.219-3.1602-3.0391-5.8164-6.0781-7.8984-9.0391z"/>
  <path d="m99.602 277.5c-0.019531-0.054687-4.9297-14.531-16.633-14.531-11.766 0-15.039 5.9531-16.32 14.898-0.82031 5.6992-2.6484 33.223 4.1836 54.062 1.2852 3.9219 3.3359 7.7031 6.0859 11.234 1.082 1.3945 2.5234 1.1797 3.0742 1.0156 0.55859-0.15234 1.875-0.69922 2.0781-2.4258 0.39063-3.2461 0.53906-6.0938 0.46094-8.4648-0.19922-5.3008-1.5234-10.496-2.6094-13.918-1.0977-3.4844-1.4961-7.0703-1.1992-10.668l0.35156-4.125c0.28906-3.4102 2.6094-6.1875 5.918-7.0781 3.3008-0.88672 6.7109 0.35156 8.668 3.1562 4.2461 6.0938 8.9688 10.59 14.008 13.359 0.57031 0.3125 1.125 0.23828 1.668-0.19922 0.24219-0.19531 1.0117-0.93359 0.67187-2.0547z"/>
  <path d="m494.2 538.03c-6-3.2422-12.801-6.9102-18.785-14.543-3.2539-4.1562-4.8867-9.4102-4.582-14.797 0.24219-4.3906-0.20703-11.246-3.7148-18.977-2.1719-4.7812-5.8906-8.1328-11.047-9.957-7.1172-2.5117-12.078-8.8242-12.641-16.074-1.3438-17.207-3.0664-30.145-4.8594-36.43-1.2734-4.4805-3.2578-9.5117-5.9062-14.957-4.1875-8.6367-5.7344-18.34-4.4727-28.062 1.5586-12.004 3.1016-28.5 1.6211-38.918-1.3633-9.6211-3.6914-17.418-5.4102-22.262-2.0938-5.9141-2.7891-12.027-2.0664-18.172 2.3203-19.906 2.5352-35.82 0.58594-43.664-3.6602-14.723-35.891-48.109-56.539-58.562-10.352-5.2461-25.324-5.4414-39.805-5.6328-14.145-0.1875-27.504-0.36328-37.98-4.8086-14.973-6.3555-21.008-16.078-25.852-23.887-2.1602-3.4805-4.0195-6.4766-6.2617-8.4492-6.25-5.4844-16.039-9.1562-19.066-10.207-1.8594 0.27344-3.7773 0.50391-5.7773 0.62891-0.92188 0.0625-1.8828 0.089844-2.8711 0.089844-0.078126 0-0.16797-0.007813-0.24609-0.007813-0.71484 24.145-9.0312 45.949-24.969 64.816-0.91797 1.0898-2.2344 1.6523-3.5664 1.6523-1.0625 0-2.1328-0.36328-3.0078-1.1016-1.9688-1.6602-2.2148-4.6016-0.55078-6.5703 10.328-12.227 17.113-25.809 20.461-40.527-1.7852 2.1602-3.7969 4.3398-6.1328 6.4766-7.7812 7.125-15.719 9.793-22.098 11.93-5.4258 1.8242-9.7188 3.2578-12.969 6.7383-6.8398 7.3086-4.7344 20.121-4.7109 20.25 0.43359 2.5312-1.2617 4.9492-3.7891 5.3906-0.27344 0.046875-0.53906 0.070312-0.8125 0.070312-2.2188 0-4.1797-1.582-4.5781-3.8438-0.125-0.70703-2.9688-17.496 7.082-28.238 4.8633-5.1992 10.938-7.2383 16.816-9.2109 6.1172-2.0508 12.441-4.1719 18.758-9.9648 7.3828-6.7617 11.332-14.098 13.289-18.797-16.352-2.5078-35.414-9.707-42.199-16.879-8.2539-8.7188-13.16-28.426-13.695-30.641-0.60156-2.5039 0.94141-5.0156 3.4453-5.625 2.5-0.59766 5.0234 0.94141 5.625 3.4414 1.2852 5.3594 5.8516 20.551 11.395 26.41 6.457 6.8281 33.156 15.836 48.738 14.828 8.6211-0.53906 15.953-2.9297 20.582-4.8359 5.2656-2.1641 10.996-2.8398 16.57-1.9766 7.0938 1.1055 20.422 2.2422 30.094-2.4375 9.5391-4.6211 15.438-16.715 18.289-24.16-3.8984 0.003906-7.7852-0.30469-11.625-1.0156-2.8945-0.53906-5.8398-0.26172-8.5156 0.78516-8.3242 3.2773-24.605 8.6406-40.18 7.8047-16.051-0.86719-29.852-11.703-36.656-18.086-1.7188-1.6133-4.2148-2.2539-6.6523-1.707-6.8516 1.5234-16.57 2.7227-24.039-0.17188-4.5039-1.75-8.8984-4.7422-13.074-8.9023-2.4375-2.4297-6.25-2.7148-8.8398-0.66406-5.793 4.5898-13.68 11.551-18.387 18.633-8.0781 12.16-7.543 29.586-7.5391 29.762 0.097656 2.5742-1.918 4.7383-4.4922 4.832h-0.17188c-2.4961 0-4.5664-1.9766-4.6523-4.4961-0.03125-0.83594-0.63281-20.625 9.0898-35.262 5.3828-8.1055 14.043-15.773 20.363-20.781 6.3008-5 15.422-4.4062 21.215 1.3633 3.2539 3.2461 6.5703 5.5391 9.8594 6.8125 4.1328 1.5977 10.754 1.5195 18.641-0.23828 5.4492-1.2109 11.098 0.28516 15.062 4.0117 5.875 5.5117 17.684 14.867 30.773 15.574 13.785 0.72656 28.648-4.1797 36.27-7.1758 4.3047-1.6875 9.0078-2.1328 13.625-1.2773 5.2617 0.98047 10.633 1.1641 15.98 0.5625 3.2031-0.36328 5.5625-3.1523 5.3828-6.3555-1.1602-20.152-4.7422-35.238-9.8125-41.395-8.4219-10.207-32.742-18.734-41.41-21.16-1.1953-0.33594-2.2109-1.1367-2.8164-2.2188-0.074219-0.12891-7.4414-13.109-19.52-19.012-7.0469-3.4414-17.508-1.2734-24.531 1.0859 2.5312 3.3867 4.5195 6.7461 5.9727 9.582 1.7734 3.4453 4.6523 6.0586 8.1289 7.3594l39.438 14.762c2.4141 0.89844 3.6328 3.5898 2.7344 6-0.89844 2.4141-3.5898 3.6406-6 2.7344l-39.438-14.762c-5.6523-2.1172-10.324-6.3125-13.152-11.828-4.3711-8.4766-14.191-22.734-30.965-22.734-25.496 0-56.789 26.605-68.672 44.992-31.246 48.375-27.191 106.36-23.996 129.04 5.2461 37.254 39.43 72.223 39.773 72.57 1.8086 1.832 1.7969 4.7852-0.039063 6.5938-0.91016 0.89844-2.0938 1.3477-3.2773 1.3477-1.2031 0-2.4062-0.46094-3.3164-1.3789-1.0781-1.0898-19.668-20.156-32.094-45.824-2.2695 4.1445-4.7383 9.4102-5.6328 14.039-0.96875 5.0352 0.17578 10.824 1.1875 15.93 0.93359 4.7031 1.7383 8.7695 1.0898 12.367-0.66797 3.6875-2.3086 6.9141-3.8789 9.3242 7.4453 6.0508 10.504 15.145 10.688 15.715l6.6406 21.863c2.0195 0.52734 4.9258 0.89453 6.8125-0.29297 1.8359-1.1562 2.6211-5.8164 2.5469-9.1328-5.5195-10.125-10.551-20.805-14.965-32.191-0.92969-2.4023 0.26562-5.1016 2.6641-6.0273 2.3984-0.92969 5.1055 0.26172 6.0352 2.668 29.613 76.465 85.496 123.3 166.12 139.21 2.5273 0.5 4.1719 2.9531 3.6758 5.4727-0.44141 2.2227-2.3906 3.7617-4.5703 3.7617-0.29688 0-0.60156-0.027343-0.90625-0.089843-7.2852-1.4375-14.301-3.2031-21.191-5.125 2.3125 12.805 8.6367 32.824 21.828 35.789 13.559 3.0508 24.168-4.5234 34.418-11.859 5.0547-3.6172 9.8242-7.043 14.824-9.0508 8.8633-3.5781 19.539-2.9805 27.301-1.7344-5.3359-9.9336-9.1953-18.73-10.258-24.914-1.082-6.2773-1.3516-12.199-1.1992-17.574-1.5234 0.078124-3.2812 0.14453-5.2812 0.14453-7.9766 0-19.285-0.9375-30.254-5.0742-12.758-4.8125-26.582-21.832-35.176-33.941 0.52344 2.5586 1.1602 5.2031 1.7773 7.7344 3.1797 13 7.1328 29.176-7.1445 33.027-1.3047 0.35547-2.6211 0.52734-3.9141 0.52734-2.7695 0-5.4844-0.79688-8-2.3672-6.2852-3.9297-10.668-12.348-13.52-19.977-2.1641 2.7227-5.0039 5.0586-8.4688 6.9141-3.9961 2.1367-8.6445 1.8867-12.449-0.65234-3.918-2.6172-6.0703-7.1328-5.6133-11.797 0.41797-4.3086 0.74609-8.7891 1.0664-13.199 1.0508-14.379 1.9531-26.809 5.7305-33.09 3.0742-5.1016 8.8359-8.2656 17.133-9.4219 1.2969-0.18359 1.7266-1.2188 1.8281-1.5352 0.22656-0.70312 0.082031-1.3086-0.43359-1.8008-6.1523-5.8594-13.223-8.7852-21.621-8.9336-2.5781-0.046875-4.625-2.168-4.5781-4.7461 0.046876-2.5781 2.0898-4.6523 4.7461-4.5781 10.691 0.19141 20.078 4.0625 27.883 11.504 3.0977 2.9453 4.1953 7.3164 2.8828 11.41-1.3711 4.2617-4.9805 7.293-9.4219 7.9102-3.6914 0.51172-8.4961 1.8008-10.422 5-2.625 4.375-3.582 17.434-4.4219 28.957-0.32812 4.4805-0.66406 9.043-1.0859 13.426-0.14062 1.4727 0.68359 2.582 1.5117 3.1328 0.53516 0.35547 1.6211 0.85938 2.8633 0.19141 5.9609-3.1953 8.832-8.0312 8.5312-14.387-0.11328-2.4375 1.6797-4.5547 4.1094-4.8438 2.4297-0.30469 4.6641 1.3477 5.1289 3.7461 1.7344 8.9609 6.9531 24.723 13.578 28.859 1.5234 0.95313 2.9297 1.1758 4.5352 0.74609 4.6953-1.2617 3.9531-7.7539 0.51172-21.809-2.2188-9.0703-4.5156-18.453-2.0469-25.379 0.10156-0.28516 0.27344-0.55078 0.38672-0.82812 0.050781-0.19922 0.1875-0.36719 0.26172-0.5625 2.1953-5.1211 6.1445-9.7227 11.938-13.633 1.6758-1.1289 1.9883-2.6992 2.0273-3.5352 0.066406-1.4961-0.60156-2.9297-1.832-3.9297-8.9219-7.2617-14.691-16.562-17.164-27.641-0.30469-1.3516 0.007813-2.7656 0.85938-3.8594 9.1445-11.859 10.18-24.699 3.1719-39.254-1.1133-2.3203-0.14062-5.1055 2.1836-6.2188 2.3203-1.1133 5.1055-0.14453 6.2266 2.1758 8.2109 17.051 7.2539 32.906-2.832 47.152 2.2344 8.1797 6.6484 14.875 13.453 20.414 3.543 2.8828 5.457 7.1016 5.2617 11.578-0.19922 4.3984-2.4297 8.3555-6.1211 10.852-3.3867 2.2852-5.8945 4.7734-7.5352 7.418 7.1445 11.387 24.383 35.562 37.523 40.527 12.852 4.8438 26.641 4.6758 32.973 4.2578 0.36328-2.8086 0.8125-5.3672 1.2773-7.5547 1.5625-7.2969 0.64844-14.98-2.5703-21.641-8.1992-16.977-13.039-29.008-14.387-35.754-3.1758-15.879 1.6055-33.75 1.8086-34.5 0.67969-2.4805 3.2344-3.9492 5.7227-3.2734 2.4844 0.67578 3.9531 3.2344 3.2773 5.7227-0.042969 0.16406-4.3984 16.539-1.6602 30.23 1.1602 5.8164 6.0078 17.719 13.641 33.527 4.1172 8.5156 5.2812 18.336 3.2891 27.652-1.5352 7.1719-2.9062 18.367-0.73047 31 2.1836 12.668 21.145 44.867 50.738 86.129 5.2656 7.3438 5.3945 17.184 0.32031 24.484-3.0977 4.4609-4.7617 9.1328-4.9375 13.898-0.03125 0.95312 0.48828 1.5898 0.9375 1.957 0.75 0.62109 1.7578 0.86719 2.7148 0.65234 3.3008-0.76172 6.6953 0.44141 8.793 3.1602 2.1016 2.7227 2.4219 6.3047 0.82812 9.3398-5.9727 11.418-12.66 15.27-19.129 19-6.043 3.4844-11.789 6.7969-17.598 17.379 21.047 4.8828 33.34 0.60938 39.461-13.543l4.9336-22.102c0.55859-2.5195 3.0586-4.0859 5.5625-3.5352 2.5117 0.55859 4.0977 3.0547 3.5352 5.5664l-4.8555 21.758c0.60156 3.125 3.5117 13.918 15.172 13.918 3.5312 0 6.1719-0.96875 8.0977-2.9648 3.4375-3.5664 3.7812-9.4141 3.8086-11.152l-7.3828-23.035c-0.78906-2.4531 0.5625-5.0781 3.0117-5.8594 2.4648-0.79297 5.082 0.57031 5.8672 3.0156l7.3477 22.926c11.555 15.992 26.289 21.008 44.957 15.16-2.5-11.988-8.5586-15.262-16.664-19.637zm-205.77-484.85c6.3359 1.1875 10.91 4.8242 13.586 10.805 1.0547 2.3516 0 5.1094-2.3516 6.1602-0.62109 0.28125-1.2695 0.41016-1.9023 0.41016-1.7852 0-3.4844-1.0273-4.2617-2.7617-1.4102-3.1523-3.5078-4.832-6.793-5.4453-2.5312-0.47656-4.1953-2.9141-3.7227-5.4414 0.48047-2.5312 2.9336-4.1875 5.4453-3.7266zm-90.582-32.367c5.1523 0 9.3242 4.1719 9.3242 9.3242 0 5.1523-4.1719 9.3242-9.3242 9.3242s-9.3242-4.1719-9.3242-9.3242c0-5.1523 4.1719-9.3242 9.3242-9.3242zm-38.816 25.09c-1.3164-2.2109-0.59375-5.0742 1.6211-6.3945 2.2148-1.3242 5.0742-0.59375 6.3945 1.6172 3.4102 5.7227 3.4102 11.773 0 17.496-0.875 1.4648-2.4258 2.2773-4.0117 2.2773-0.8125 0-1.6367-0.21094-2.3828-0.65625-2.2148-1.3203-2.9375-4.1797-1.6211-6.3945 1.6562-2.7852 1.6562-5.1602 0-7.9453z"/>
  <path d="m508.02 377.37c-23.598-13.574-42.238-24.293-49.699-32.145-12.484-13.121-21.082-28.832-26.531-41.062-0.066407 0.59375-0.12891 1.2266-0.19531 1.8047-0.55078 4.7227-0.019531 9.4219 1.5938 13.98 1.8555 5.2461 4.3828 13.68 5.8555 24.066 1.6289 11.449 0.023437 28.848-1.6133 41.426-1.0273 7.9141 0.22266 15.793 3.6133 22.789 2.5664 5.2812 4.543 10.23 5.9531 14.785 5.4062 3.5312 26.777 16.938 47.488 22.273 4.8086 1.2422 11.465 2.3633 19.176 3.6641 31.855 5.3711 79.996 13.496 88.488 45.945 5.6836 21.73-8.4297 36.824-23.277 46.312 24.441-5.3359 55.336-18.648 55.336-51.891-0.003907-39.355-75.941-83.043-126.19-111.95z"/>
  <use x="65.792969" y="629.945312" xlink:href="#v"/>
  <use x="82.90625" y="629.945312" xlink:href="#d"/>
  <use x="94.402344" y="629.945312" xlink:href="#b"/>
  <use x="110.214844" y="629.945312" xlink:href="#l"/>
  <use x="125.949219" y="629.945312" xlink:href="#a"/>
  <use x="137.09375" y="629.945312" xlink:href="#b"/>
  <use x="152.90625" y="629.945312" xlink:href="#f"/>
  <use x="177.710938" y="629.945312" xlink:href="#k"/>
  <use x="194.402344" y="629.945312" xlink:href="#e"/>
  <use x="217.714844" y="629.945312" xlink:href="#j"/>
  <use x="235.757812" y="629.945312" xlink:href="#i"/>
  <use x="260.050781" y="629.945312" xlink:href="#b"/>
  <use x="275.863281" y="629.945312" xlink:href="#a"/>
  <use x="287.011719" y="629.945312" xlink:href="#h"/>
  <use x="303.609375" y="629.945312" xlink:href="#e"/>
  <use x="318.804688" y="629.945312" xlink:href="#u"/>
  <use x="332.683594" y="629.945312" xlink:href="#a"/>
  <use x="351.945312" y="629.945312" xlink:href="#t"/>
  <use x="368.738281" y="629.945312" xlink:href="#a"/>
  <use x="379.882812" y="629.945312" xlink:href="#g"/>
  <use x="396.480469" y="629.945312" xlink:href="#f"/>
  <use x="413.167969" y="629.945312" xlink:href="#s"/>
  <use x="421.160156" y="629.945312" xlink:href="#c"/>
  <use x="65.792969" y="653.257812" xlink:href="#r"/>
  <use x="75.9375" y="653.257812" xlink:href="#d"/>
  <use x="87.433594" y="653.257812" xlink:href="#c"/>
  <use x="103.453125" y="653.257812" xlink:href="#i"/>
  <use x="135.863281" y="653.257812" xlink:href="#a"/>
  <use x="147.007812" y="653.257812" xlink:href="#h"/>
  <use x="163.605469" y="653.257812" xlink:href="#b"/>
  <use x="187.535156" y="653.257812" xlink:href="#q"/>
  <use x="207.046875" y="653.257812" xlink:href="#c"/>
  <use x="223.066406" y="653.257812" xlink:href="#g"/>
  <use x="239.664062" y="653.257812" xlink:href="#p"/>
  <use x="264.378906" y="653.257812" xlink:href="#o"/>
  <use x="281.464844" y="653.257812" xlink:href="#d"/>
  <use x="292.964844" y="653.257812" xlink:href="#c"/>
  <use x="308.980469" y="653.257812" xlink:href="#n"/>
  <use x="316.972656" y="653.257812" xlink:href="#b"/>
  <use x="332.785156" y="653.257812" xlink:href="#m"/>
  <use x="346.605469" y="653.257812" xlink:href="#a"/>
 </g>
</svg>
